PathFileType	4	(X/Y/Z)	1_Data\ik.trc
DataRate	CameraRate	NumFrames	NumMarkers	Units	OrigDataRate	OrigDataStartFrame	OrigNumFrames
120.000000	120.000000	4	54	mm	120.000000	0	131
Frame#	Time	Sternum			Neck			RShoulder			LShoulder			Xiphoid			Thoracic			RAsis			LAsis			RPsis			LPsis			Lumbar			RElbow			RWrist			RRadius			RUlna			LElbow			LWrist			LUlna			LRadius			LThighSuperior			LThighInferior			LThighLateral			LPatella			LShankSuperior			LShankInferior			LShankLateral			RThighSuperior			RThighInferior			RThighLateral			RPatella			RShankSuperior			RShankInferior			RShankLateral			RHeel			RToe			RMidfootMedial			RMidfootLateral			RHindfoot			RMidfootSuperior			RToeMedial			RToeLateral			LHeel			LToe			LMidfootMedial			LMidfootLateral			LHindfoot			LMidfootSuperior			LToeMedial			LToeLateral			Oglobal			Sacral			Xglobal			Yglobal			Zglobal			
		X1	Y1	Z1	X2	Y2	Z2	X3	Y3	Z3	X4	Y4	Z4	X5	Y5	Z5	X6	Y6	Z6	X7	Y7	Z7	X8	Y8	Z8	X9	Y9	Z9	X10	Y10	Z10	X11	Y11	Z11	X12	Y12	Z12	X13	Y13	Z13	X14	Y14	Z14	X15	Y15	Z15	X16	Y16	Z16	X17	Y17	Z17	X18	Y18	Z18	X19	Y19	Z19	X20	Y20	Z20	X21	Y21	Z21	X22	Y22	Z22	X23	Y23	Z23	X24	Y24	Z24	X25	Y25	Z25	X26	Y26	Z26	X27	Y27	Z27	X28	Y28	Z28	X29	Y29	Z29	X30	Y30	Z30	X31	Y31	Z31	X32	Y32	Z32	X33	Y33	Z33	X34	Y34	Z34	X35	Y35	Z35	X36	Y36	Z36	X37	Y37	Z37	X38	Y38	Z38	X39	Y39	Z39	X40	Y40	Z40	X41	Y41	Z41	X42	Y42	Z42	X43	Y43	Z43	X44	Y44	Z44	X45	Y45	Z45	X46	Y46	Z46	X47	Y47	Z47	X48	Y48	Z48	X49	Y49	Z49	X50	Y50	Z50	X51	Y51	Z51	X52	Y52	Z52	X53	Y53	Z53	X54	Y54	Z54	

1	0	87.52021026611327	1415.30712890625	138.849884033203	-74.76560974121095	1520.967651367188	151.6636657714843	-18.52565574646	1506.602416992188	308.5202026367186	-52.12502288818359	1508.398071289062	9.677988052368065	114.2660522460937	1257.098754882812	146.9566802978515	-162.2985229492188	1305.952026367188	162.1115570068358	23.37912368774411	1001.441040039062	293.7936096191406	32.87243270874023	985.5462036132812	15.76134967803949	-164.4417877197266	1020.521850585938	207.5038452148437	-165.5187377929688	1013.542297363281	102.4569778442382	-165.2393035888672	1085.585571289062	136.2986755371093	-9.689678192138725	1181.459106445312	440.6423950195312	214.7156219482421	1030.002075195312	453.3677673339843	230.324478149414	1033.869873046875	403.1768188476562	189.2097778320312	993.1126098632812	460.3459167480468	-168.1699066162109	1188.897827148438	-87.84157562255868	-158.6251983642578	932.3211669921875	-162.3075256347657	-192.6862640380859	930.05712890625	-129.7537841796876	-116.1091690063476	918.4008178710938	-140.1963500976563	0.7359277606010486	824.1612548828125	-40.07740020751958	109.6896667480469	619.4598999023438	-15.11694812774661	146.0303192138672	742.0269775390625	32.01499557495115	214.489501953125	566.469482421875	46.05848693847656	182.5402374267578	395.7162780761719	-27.50109100341797	217.6141815185547	195.8707885742188	0.4056214988231805	241.8509216308594	301.2512817382812	34.39257431030274	-68.11029815673832	811.9429931640625	340.2197570800781	-122.0771026611329	577.4373779296875	312.5472717285156	3.805602073669401	707.5678100585938	269.6218872070312	-74.15037536621097	482.7505187988281	253.7158050537109	-190.791244506836	429.6143188476562	320.7135620117188	-288.0401000976563	191.7503204345703	289.8651733398437	-193.9876403808594	291.0406799316406	244.3238830566406	-415.8634948730469	93.57180023193361	242.8258209228515	-103.4660797119141	37.24240112304689	245.4446868896484	-205.6095123291016	32.83203125000001	195.1061248779297	-206.6615295410157	28.18625259399416	316.7346496582031	-258.3893127441407	35.26771926879885	307.1389160156249	-230.0796203613282	97.74814605712892	248.8020935058593	-159.0111083984375	30.1454200744629	199.0724334716797	-155.7069702148438	28.86957740783693	302.4937438964844	177.0067443847656	57.15889358520508	56.15074920654299	472.2747497558594	129.8607482910156	-1.253745913505504	392.0105285644531	76.70992279052734	62.2142715454102	377.5771484375	73.53217315673828	-50.89766311645504	327.9300842285156	59.49125289916992	-35.81089019775387	348.7371215820312	132.7072143554688	18.16405296325687	430.8860168457031	90.28092956542969	53.21012496948246	417.4383544921875	96.64825439453125	-49.73674774169918	0	0	0	-164.9802551269532	1017.032043457031	154.9804077148437	-200	0	-2.449293598294706e-14	-2.449293598294706e-14	1.224646799147353e-14	200	1.499759782661858e-30	200	-1.224646799147353e-14	
2	0.008333333333333335	96.19400787353514	1414.437622070312	136.9729003906249	-66.00961303710939	1520	149.7982635498046	-10.12045001983646	1505.849853515625	306.4565124511718	-43.12187194824219	1507.418334960938	7.641935348510644	123.4883117675781	1256.539794921875	145.0521850585937	-153.06640625	1304.891479492188	159.9257659912108	32.57123565673825	1000.411926269531	292.4219970703124	43.76572036743164	984.8672485351562	13.73877143859858	-154.7171630859375	1019.52099609375	204.9840393066405	-155.0877227783203	1012.390441894531	99.52310943603509	-155.1883392333985	1084.536865234375	133.5748901367187	-1.183636903762871	1180.802856445312	438.7496337890624	223.0579071044921	1028.888061523438	451.3182678222656	238.415542602539	1032.612548828125	401.3022155761719	197.4150390624999	992.07275390625	458.3945312499999	-158.2832794189453	1187.639038085938	-90.22623443603524	-147.3344573974609	931.0818481445312	-164.6077728271485	-181.7496948242187	928.7987060546875	-132.5994110107423	-104.8749618530273	917.302734375	-142.2166595458985	12.69214725494385	823.1542358398438	-40.65289688110357	119.0477676391602	617.259521484375	-14.78595161437991	155.9703979492188	738.8182373046875	30.41926956176755	223.6900024414062	563.7922973632812	46.73206710815429	189.1940612792969	392.5856018066406	-26.20367240905762	221.7387084960938	193.6137390136719	1.642713665962235	247.6671447753906	298.2229309082031	35.45330429077149	-59.30839157104496	811.6689453125	338.9057006835937	-113.2056045532227	576.9865112304688	311.5797729492187	13.22218227386471	707.1854248046875	269.0827941894531	-66.15555572509768	480.6192932128906	253.3019256591797	-183.8453674316407	429.7137451171875	319.6630249023438	-284.9047241210938	193.8603668212891	289.3547973632812	-189.4033966064453	291.3879699707031	243.9334411621093	-414.2188415527344	97.83638763427736	242.5055541992187	-103.1336364746094	36.63545989990236	245.7586669921875	-205.1881103515625	32.55201721191408	195.0248870849609	-206.5574645996094	28.39065361022951	316.6815795898438	-257.7876586914063	36.38737869262697	307.0499572753906	-229.4452667236328	97.80334472656251	248.4170684814453	-158.5444030761719	29.64443397521974	199.2100219726562	-155.6253814697266	28.75200653076174	302.6469421386719	179.2967224121094	57.92124557495117	56.34967422485354	476.0982360839844	122.2317047119141	1.264310956001333	395.4391174316406	71.14604949951172	64.10594940185551	379.853759765625	69.58074951171875	-49.71704864501949	331.1279296875	54.9090576171875	-33.43716049194332	352.6938781738281	127.9111633300781	20.0842323303223	433.9255981445312	83.23509216308594	55.54722976684575	420.0022888183594	91.20342254638672	-47.22479248046871	0	0	0	-154.9024353027344	1015.955688476562	152.2535705566405	-200	0	-2.449293598294706e-14	-2.449293598294706e-14	1.224646799147353e-14	200	1.499759782661858e-30	200	-1.224646799147353e-14	
3	0.01666666666666667	104.9888381958008	1413.981201171875	135.3528594970702	-57.35940551757815	1519.229248046875	147.8002471923827	-1.899351835250892	1505.192626953125	304.3796386718749	-34.16334533691406	1506.627685546875	5.349361896514796	133.0445709228515	1256.369995117188	143.3098144531249	-143.7386627197266	1303.877075195312	157.5324401855468	41.83303070068356	999.1939697265625	290.7073974609374	54.83066940307617	984.2487182617188	11.83491516113276	-144.8418731689453	1018.777893066406	202.0595092773437	-144.5083923339844	1011.472412109375	96.59301757812493	-144.8545684814453	1083.749389648438	130.7216033935546	7.301296234130806	1180.277465820312	436.9817504882812	230.9517364501953	1027.59765625	449.4774169921874	246.2305908203124	1031.246459960938	399.2708129882812	205.4052429199218	990.9855346679688	456.7044982910156	-148.317626953125	1186.624389648438	-92.85002136230477	-135.7729339599609	929.9606323242188	-166.8885192871095	-170.4761352539062	927.6907958984375	-135.0640106201173	-93.1736373901367	916.0036010742188	-144.2521057128907	24.28025054931641	821.8775634765625	-41.28829956054692	127.2830276489258	615.0618896484375	-14.61698436737063	166.2375030517578	735.5352783203125	28.82996749877927	232.1394348144531	561.2329711914062	47.4095115661621	195.8139953613281	389.8689880371094	-25.66559028625488	226.9495086669922	191.243408203125	2.021890163421647	253.7786560058594	295.3146667480469	36.08489608764649	-50.27033996582036	811.3050537109375	337.5057373046874	-103.7835006713868	576.6122436523438	310.6860351562499	22.63295936584469	706.3010864257812	268.3602294921874	-57.35232162475589	478.6274108886719	252.8774871826172	-175.8941192626953	430.254638671875	319.3042907714844	-281.3102722167969	196.2528381347657	288.8311157226562	-183.7290802001953	291.4575500488281	243.6116943359374	-412.2703857421876	102.5010223388672	242.2619934082031	-102.4544296264649	35.88687133789064	245.6480255126953	-204.2780151367188	33.45531463623048	196.7698364257812	-206.4083862304688	28.58206176757814	316.5188598632812	-257.1224060058594	37.65454483032229	307.0856628417968	-227.901596069336	98.68565368652345	250.3942108154297	-158.5869750976563	29.89059066772462	199.8311462402343	-154.2585144042969	28.36210060119631	303.2112426757812	181.76123046875	58.72046279907227	55.42029571533205	480.490478515625	113.2792587280273	4.906958580017141	399.0712585449219	65.46115112304688	66.61349487304692	384.5694274902344	61.91452026367188	-46.91216278076168	335.0691528320312	49.52523422241211	-31.35666656494137	357.6520385742188	122.72314453125	21.88693618774418	436.8143920898438	76.03395080566406	59.2308959960938	424.5046081542969	82.47819519042969	-43.85344314575191	0	0	0	-144.6751403808594	1015.125183105469	149.3262634277343	-200	0	-2.449293598294706e-14	-2.449293598294706e-14	1.224646799147353e-14	200	1.499759782661858e-30	200	-1.224646799147353e-14	
4	0.025	113.1478805541992	1413.744995117188	133.9516143798827	-48.71887969970705	1518.62890625	145.5399780273437	5.999818801879846	1504.813842773438	302.1237792968749	-25.07978439331055	1506.052001953125	3.034324884414577	142.5848541259765	1256.472900390625	141.645767211914	-134.3086242675782	1303.0791015625	154.9119567871093	51.30815887451168	998.525634765625	289.0954284667968	66.09639739990234	983.67431640625	10.35926342010493	-134.7751770019532	1018.270751953125	199.2370300292968	-133.8703918457031	1010.612182617188	93.73506927490227	-134.378646850586	1083.0712890625	127.9675903320312	15.70688533782954	1180.030883789062	434.8766784667968	238.6308593749999	1026.145751953125	447.5624084472656	254.0910034179687	1029.917602539062	397.4645385742188	212.9842071533203	989.4983520507812	454.7901611328124	-138.2749786376953	1185.770874023438	-95.37748718261727	-124.3649215698242	929.5270385742188	-169.6903381347657	-158.8619842529297	926.57275390625	-137.6494750976563	-81.77976226806639	915.6060791015625	-146.6051940917969	35.22293090820313	820.8328857421875	-42.34486007690434	134.9469146728516	612.8221435546875	-14.63651180267336	176.7029876708984	733.4828491210938	28.54374122619626	240.1518707275391	558.6490478515625	48.64746093749999	202.8134765625	387.529296875	-25.82138824462891	232.8865509033203	188.9058837890625	1.916273713111894	260.0167846679688	292.5452270507812	36.29481887817384	-40.99876022338871	811.1461791992188	335.9752807617187	-93.73446655273442	576.196044921875	309.7941589355468	32.61163330078121	706.2183837890625	267.4917602539062	-47.42809677124026	476.8554382324219	252.6683654785156	-167.4090423583985	430.7704162597656	318.8102722167969	-277.2747497558594	198.9230499267578	288.4939880371093	-177.6012725830078	292.1166687011719	243.2745666503906	-409.7619628906251	107.7811431884766	241.865737915039	-102.3453598022461	35.26793289184572	246.1604614257812	-203.6244506835938	33.49570846557619	196.2725982666015	-206.2708129882813	28.85085296630861	316.4341430664062	-256.3818054199219	39.23501205444338	306.9089660644531	-227.3731994628907	98.98572540283205	249.5201568603515	-158.0484924316407	29.60285949707032	199.7808074951172	-154.7891235351563	28.21751403808596	303.2021484375	184.666748046875	60.0172233581543	54.44387435913087	485.3634643554688	103.5040588378906	8.434473037719778	399.4922485351562	58.21722412109376	69.95533752441411	388.558349609375	54.90060043334961	-44.36196136474604	339.3427734375	43.37569808959961	-29.07385253906246	362.8544311523438	117.2838439941406	23.5572834014893	439.3179626464844	68.25811004638672	62.13212203979497	429.3533935546875	74.23496246337891	-41.2333717346191	0	0	0	-134.3227844238282	1014.441467285156	146.4860534667968	-200	0	-2.449293598294706e-14	-2.449293598294706e-14	1.224646799147353e-14	200	1.499759782661858e-30	200	-1.224646799147353e-14	
